<svg width="35" height="35" viewBox="0 0 35 35" fill="none" xmlns="http://www.w3.org/2000/svg">
<rect x="1" y="1" width="33" height="33" rx="2" stroke="#E03D22" stroke-width="2"/>
<path d="M20.8064 21.7242C21.0613 21.8077 21.581 21.8812 22.2429 22.0306C22.2429 22.0306 25.0144 22.4121 25.9993 23.1594C27.3557 24.1885 27.4226 26.9471 27.4226 26.9471H7.57892C7.57892 26.9471 7.46697 24.1362 9.16085 23.1594C11.1317 22.0223 13.0046 21.9137 13.5782 21.7242L13.588 21.721C14.1204 21.5441 14.6878 21.3556 14.6878 20.6039C14.6878 19.8483 14.6968 19.7498 14.5154 19.6488C14.169 19.4542 13.963 19.1537 13.9181 18.9199C13.8339 18.4841 13.7898 17.2636 13.6803 17.1074C13.57 16.9497 13.3731 17.0841 13.3077 16.7268C13.2415 16.3686 13.2415 16.0547 13.1762 15.9211C13.1108 15.7867 12.8804 14.9209 13.0234 14.6229C13.1492 14.3574 13.3788 14.496 13.3951 14.3315C13.4229 14.0635 12.9327 11.8153 13.2636 10.8627C13.6076 9.8717 13.9818 9.73478 14.3324 9.5102C14.6829 9.28646 14.9068 8.71374 15.7395 8.28796C16.5721 7.86302 17.7978 8.1093 18.2145 8.28796C18.6312 8.46746 20.2957 8.93665 20.5367 9.80992C20.54 9.82244 20.9339 10.3225 21.121 10.8627C21.4519 11.8153 20.9616 14.0635 20.9902 14.3315C21.0058 14.496 21.2354 14.3574 21.362 14.6229C21.5042 14.9209 21.2738 15.7867 21.2084 15.9211C21.143 16.0547 21.143 16.3686 21.0777 16.7268C21.0115 17.0841 20.8146 16.9497 20.7051 17.1074C20.5956 17.2636 20.5506 18.4841 20.4665 18.9199C20.4215 19.1537 20.2164 19.4542 19.8692 19.6488C19.6878 19.7498 19.6976 19.8483 19.6976 20.6039C19.6976 21.3553 20.2646 21.544 20.796 21.7208L20.8064 21.7242Z" fill="#A9A9A9"/>
<path d="M20.8064 21.7242L20.6485 22.1987L20.6508 22.1994L20.8064 21.7242ZM20.796 21.7208L20.9539 21.2464L20.9538 21.2463L20.796 21.7208ZM19.8692 19.6488L20.1124 20.0856L20.1135 20.085L19.8692 19.6488ZM20.4665 18.9199L19.9755 18.8251L19.9755 18.8255L20.4665 18.9199ZM20.7051 17.1074L21.1144 17.3946L21.1159 17.3925L20.7051 17.1074ZM21.0777 16.7268L21.5693 16.8178L21.5695 16.8165L21.0777 16.7268ZM21.2084 15.9211L21.6575 16.1409L21.6581 16.1398L21.2084 15.9211ZM21.362 14.6229L21.8133 14.4076L21.8133 14.4076L21.362 14.6229ZM20.9902 14.3315L21.4881 14.2845L21.4874 14.2785L20.9902 14.3315ZM21.121 10.8627L20.6485 11.0263L20.6487 11.0268L21.121 10.8627ZM20.5367 9.80992L21.0206 9.68364L21.0187 9.67688L20.5367 9.80992ZM18.2145 8.28796L18.4123 7.82875L18.4115 7.82842L18.2145 8.28796ZM15.7395 8.28796L15.5122 7.84261L15.5118 7.84279L15.7395 8.28796ZM14.3324 9.5102L14.0634 9.08874L14.0627 9.08919L14.3324 9.5102ZM13.2636 10.8627L13.7359 11.0268L13.7359 11.0266L13.2636 10.8627ZM13.3951 14.3315L12.8978 14.28L12.8976 14.2821L13.3951 14.3315ZM13.0234 14.6229L13.4742 14.8392L13.4752 14.8371L13.0234 14.6229ZM13.1762 15.9211L12.7265 16.1398L12.7271 16.1409L13.1762 15.9211ZM13.3077 16.7268L13.7996 16.6368L13.7994 16.6359L13.3077 16.7268ZM13.6803 17.1074L13.2705 17.3939L13.271 17.3945L13.6803 17.1074ZM13.9181 18.9199L14.4091 18.8255L14.409 18.8251L13.9181 18.9199ZM14.5154 19.6488L14.2706 20.0848L14.2721 20.0856L14.5154 19.6488ZM13.588 21.721L13.4304 21.2465H13.4304L13.588 21.721ZM13.5782 21.7242L13.735 22.199L13.7358 22.1987L13.5782 21.7242ZM9.16085 23.1594L9.41063 23.5925L9.41072 23.5925L9.16085 23.1594ZM7.57892 26.9471L7.07931 26.967L7.09843 27.4471H7.57892V26.9471ZM27.4226 26.9471V27.4471H27.9349L27.9225 26.935L27.4226 26.9471ZM25.9993 23.1594L26.3015 22.761L25.9993 23.1594ZM21.3654 22.7192C21.7401 22.6964 22.0867 22.6069 22.3971 22.5062L22.0886 21.555C21.8173 21.643 21.5608 21.7055 21.3047 21.7211L21.3654 22.7192ZM22.353 21.5429C22.013 21.4661 21.709 21.4088 21.4674 21.3619C21.212 21.3123 21.0533 21.2789 20.962 21.2491L20.6508 22.1994C20.8145 22.253 21.043 22.2981 21.2767 22.3435C21.5241 22.3916 21.8109 22.4457 22.1328 22.5184L22.353 21.5429ZM20.9643 21.2498L20.9539 21.2464L20.6381 22.1952L20.6485 22.1987L20.9643 21.2498ZM20.9538 21.2463C20.6684 21.1514 20.4831 21.084 20.356 20.9843C20.2684 20.9157 20.1976 20.8256 20.1976 20.6039H19.1976C19.1976 21.1336 19.4102 21.5136 19.739 21.7713C20.0282 21.998 20.3921 22.1134 20.6381 22.1952L20.9538 21.2463ZM20.1976 20.6039C20.1976 20.411 20.197 20.2699 20.1988 20.1583C20.2007 20.0435 20.205 19.9865 20.2095 19.9567C20.2136 19.9305 20.212 19.9687 20.1759 20.0205C20.1383 20.0744 20.0971 20.0941 20.1124 20.0856L19.6259 19.2119C19.5505 19.2539 19.4425 19.3239 19.3557 19.4483C19.2705 19.5705 19.2373 19.6996 19.2211 19.805C19.1934 19.9858 19.1976 20.2563 19.1976 20.6039H20.1976ZM20.1135 20.085C20.5647 19.8323 20.8798 19.4185 20.9575 19.0143L19.9755 18.8255C19.9709 18.8493 19.9492 18.9116 19.8868 18.9917C19.827 19.0684 19.7398 19.1481 19.6248 19.2125L20.1135 20.085ZM20.9574 19.0147C21.0056 18.7651 21.0409 18.31 21.0741 17.9553C21.0918 17.7659 21.1093 17.5966 21.1282 17.4675C21.1377 17.4025 21.1462 17.3574 21.1529 17.3296C21.1649 17.2797 21.1607 17.3285 21.1144 17.3945L20.2957 16.8203C20.222 16.9254 20.1925 17.0466 20.1808 17.0949C20.1637 17.1655 20.1501 17.2448 20.1387 17.3229C20.1157 17.4803 20.0962 17.6726 20.0784 17.8623C20.0407 18.2659 20.0115 18.6389 19.9755 18.8251L20.9574 19.0147ZM21.1159 17.3925C21.0761 17.4498 21.0237 17.4797 20.9995 17.4902C20.9946 17.4923 20.9927 17.4927 21.014 17.4855C21.0289 17.4804 21.0664 17.468 21.1061 17.4509C21.1988 17.4107 21.3141 17.3411 21.4098 17.2109C21.4985 17.0903 21.5443 16.9527 21.5693 16.8178L20.586 16.6357C20.5779 16.6794 20.5743 16.6591 20.604 16.6187C20.6407 16.5687 20.6876 16.5423 20.7092 16.533C20.7132 16.5312 20.7144 16.5311 20.6933 16.5383C20.6785 16.5433 20.6406 16.5558 20.6008 16.5731C20.5068 16.614 20.3888 16.6862 20.2943 16.8224L21.1159 17.3925ZM21.5695 16.8165C21.606 16.617 21.6247 16.4261 21.6397 16.2977C21.6477 16.2287 21.6542 16.1811 21.6608 16.1462C21.6684 16.1061 21.6708 16.1137 21.6575 16.1409L20.7593 15.7013C20.7133 15.7953 20.6912 15.8922 20.6784 15.9597C20.6646 16.0325 20.6547 16.1108 20.6464 16.1817C20.6287 16.3332 20.6147 16.4784 20.5858 16.637L21.5695 16.8165ZM21.6581 16.1398C21.6972 16.0593 21.7342 15.9384 21.7624 15.8351C21.7945 15.7172 21.8285 15.5723 21.8554 15.4207C21.8819 15.271 21.9037 15.1032 21.9071 14.9431C21.9101 14.8003 21.9013 14.592 21.8133 14.4076L20.9107 14.8382C20.8939 14.8028 20.9096 14.8145 20.9073 14.9221C20.9054 15.0123 20.8922 15.1252 20.8707 15.246C20.8496 15.3649 20.8226 15.4803 20.7976 15.5719C20.7687 15.678 20.7523 15.7157 20.7588 15.7024L21.6581 16.1398ZM21.8133 14.4076C21.7467 14.2681 21.6527 14.1558 21.5338 14.075C21.4211 13.9984 21.312 13.9686 21.2576 13.9547C21.245 13.9515 21.2312 13.9482 21.2254 13.9468C21.2173 13.9448 21.2153 13.9443 21.2154 13.9443C21.2157 13.9444 21.2223 13.9462 21.2325 13.95C21.2427 13.9538 21.2596 13.9607 21.2801 13.9721C21.3241 13.9966 21.381 14.0399 21.4261 14.1101C21.4702 14.1787 21.4842 14.2438 21.488 14.2845L20.4925 14.3785C20.5002 14.4604 20.5247 14.5571 20.5848 14.6507C20.6459 14.7458 20.7244 14.8073 20.7941 14.8461C20.8579 14.8816 20.917 14.8993 20.9472 14.9077C20.9637 14.9123 20.9789 14.916 20.9886 14.9184C21.0006 14.9213 21.0051 14.9224 21.0113 14.9239C21.0321 14.9292 21.0051 14.9248 20.9715 14.902C20.9319 14.875 20.914 14.845 20.9107 14.8382L21.8133 14.4076ZM21.4874 14.2785C21.4908 14.3099 21.4866 14.3029 21.4981 14.2006C21.5072 14.1192 21.5218 14.0122 21.5403 13.8796C21.5767 13.6188 21.6262 13.2744 21.6661 12.9078C21.7058 12.5419 21.7372 12.1426 21.7361 11.7674C21.7351 11.4016 21.7036 11.016 21.5933 10.6986L20.6487 11.0268C20.7039 11.1856 20.7352 11.4383 20.7361 11.7703C20.7371 12.093 20.7098 12.4511 20.6719 12.7998C20.6341 13.1479 20.5871 13.4754 20.5499 13.7413C20.5317 13.872 20.5152 13.992 20.5044 14.0886C20.4958 14.1643 20.4826 14.2862 20.4931 14.3846L21.4874 14.2785ZM21.5934 10.699C21.4821 10.3776 21.3147 10.081 21.183 9.87196C21.1159 9.76538 21.0553 9.67725 21.0115 9.61533C20.9899 9.58463 20.9719 9.55978 20.9611 9.54478C20.9584 9.54096 20.9563 9.53806 20.9547 9.5358C20.953 9.53339 20.9524 9.53262 20.9526 9.53286C20.9527 9.53302 20.9534 9.53396 20.9544 9.53546C20.9553 9.53678 20.9573 9.53982 20.9599 9.54397C20.962 9.54719 20.9677 9.55622 20.9745 9.56844C20.9779 9.57455 20.9838 9.58557 20.9904 9.59982C20.9953 9.61029 21.0095 9.64138 21.0205 9.68366L20.0529 9.93618C20.064 9.97865 20.0783 10.01 20.0834 10.0208C20.0901 10.0353 20.0962 10.0467 20.0999 10.0533C20.1071 10.0664 20.1135 10.0765 20.1164 10.081C20.1227 10.0909 20.1284 10.0991 20.131 10.1029C20.1369 10.1114 20.1438 10.121 20.1491 10.1284C20.1612 10.1453 20.176 10.1658 20.1946 10.1921C20.2315 10.2444 20.2817 10.3174 20.3368 10.4049C20.4497 10.5841 20.5727 10.8076 20.6485 11.0263L21.5934 10.699ZM21.0187 9.67688C20.9224 9.32786 20.6952 9.05568 20.4575 8.85047C20.2175 8.64328 19.9335 8.47563 19.6649 8.34146C19.3939 8.20613 19.1215 8.09653 18.8966 8.01121C18.6523 7.91852 18.5041 7.86828 18.4123 7.82875L18.0167 8.74718C18.1333 8.79739 18.3493 8.87312 18.5419 8.94617C18.7538 9.0266 18.9907 9.12253 19.2181 9.23609C19.4478 9.35082 19.6512 9.47542 19.8041 9.60742C19.9593 9.7414 20.0306 9.85534 20.0548 9.94296L21.0187 9.67688ZM18.4115 7.82842C18.1414 7.71263 17.6736 7.59648 17.1661 7.56272C16.6607 7.52908 16.0426 7.5719 15.5122 7.84261L15.9667 8.73332C16.269 8.57908 16.68 8.53257 17.0997 8.56051C17.5175 8.58831 17.8708 8.68464 18.0175 8.74751L18.4115 7.82842ZM15.5118 7.84279C15.0247 8.0919 14.7141 8.38658 14.4851 8.6386C14.4294 8.69989 14.3785 8.75874 14.3336 8.81065C14.2874 8.86422 14.2493 8.90839 14.2127 8.94875C14.1376 9.0316 14.0937 9.06938 14.0634 9.08874L14.6014 9.93167C14.7463 9.83915 14.8619 9.72144 14.9533 9.62068C15 9.56923 15.0471 9.51455 15.0905 9.46419C15.1355 9.41216 15.1789 9.36199 15.2252 9.31109C15.4039 9.11437 15.6216 8.90981 15.9671 8.73314L15.5118 7.84279ZM14.0627 9.08919C13.9325 9.17261 13.67 9.31002 13.4364 9.55112C13.1909 9.80455 12.9792 10.1572 12.7912 10.6987L13.7359 11.0266C13.892 10.5772 14.0394 10.3659 14.1546 10.247C14.2818 10.1157 14.3818 10.0724 14.6021 9.93121L14.0627 9.08919ZM12.7913 10.6986C12.681 11.016 12.6495 11.4016 12.6484 11.7674C12.6474 12.1427 12.6788 12.5419 12.7186 12.9079C12.7585 13.2745 12.8081 13.6189 12.8446 13.8798C12.8632 14.0125 12.8778 14.1196 12.8871 14.201C12.8987 14.3033 12.8946 14.3108 12.8978 14.28L13.8925 14.3831C13.9026 14.2853 13.8893 14.1639 13.8807 14.0882C13.8698 13.9917 13.8532 13.8717 13.8349 13.7411C13.7977 13.4753 13.7506 13.1478 13.7128 12.7998C13.6748 12.4511 13.6475 12.0929 13.6484 11.7703C13.6494 11.4383 13.6807 11.1856 13.7359 11.0268L12.7913 10.6986ZM12.8976 14.2821C12.9017 14.2412 12.916 14.1764 12.9602 14.1083C13.0053 14.0387 13.062 13.9959 13.1056 13.9717C13.1259 13.9605 13.1427 13.9536 13.1528 13.9498C13.1628 13.9461 13.1693 13.9443 13.1696 13.9443C13.1696 13.9443 13.1676 13.9448 13.1595 13.9468C13.1536 13.9482 13.1398 13.9515 13.1272 13.9547C13.0727 13.9686 12.9634 13.9985 12.8506 14.0754C12.7316 14.1565 12.6378 14.2691 12.5715 14.4087L13.4752 14.8371C13.4719 14.844 13.4539 14.8744 13.4139 14.9016C13.38 14.9247 13.3528 14.9292 13.3734 14.9239C13.3796 14.9224 13.3842 14.9213 13.3961 14.9184C13.4058 14.916 13.421 14.9123 13.4374 14.9077C13.4676 14.8993 13.5265 14.8817 13.5901 14.8465C13.6596 14.808 13.7378 14.747 13.7991 14.6525C13.8595 14.5595 13.8845 14.463 13.8927 14.381L12.8976 14.2821ZM12.5726 14.4066C12.484 14.5912 12.4749 14.7997 12.4778 14.9426C12.481 15.1028 12.5028 15.2708 12.5293 15.4206C12.5561 15.5722 12.5901 15.7171 12.6222 15.835C12.6504 15.9384 12.6874 16.0593 12.7265 16.1398L13.6258 15.7024C13.6323 15.7157 13.6159 15.678 13.587 15.5719C13.562 15.4803 13.535 15.3651 13.514 15.2462C13.4926 15.1254 13.4794 15.0127 13.4776 14.9225C13.4755 14.8151 13.4912 14.8036 13.4742 14.8392L12.5726 14.4066ZM12.7271 16.1409C12.7138 16.1137 12.7161 16.1062 12.7238 16.1463C12.7304 16.1813 12.7369 16.2289 12.745 16.2981C12.7602 16.4268 12.7791 16.6177 12.816 16.8176L13.7994 16.6359C13.7702 16.4777 13.756 16.3325 13.7382 16.1814C13.7299 16.1105 13.72 16.0323 13.7062 15.9596C13.6934 15.8922 13.6712 15.7953 13.6253 15.7013L12.7271 16.1409ZM12.8159 16.8167C12.8405 16.9516 12.8861 17.0893 12.9746 17.2102C13.0703 17.3408 13.1858 17.4107 13.2787 17.4509C13.3184 17.468 13.356 17.4804 13.3711 17.4855C13.3925 17.4928 13.3906 17.4925 13.3859 17.4904C13.3621 17.4801 13.3102 17.4507 13.2705 17.3939L14.0901 16.821C13.9953 16.6853 13.8774 16.6135 13.7836 16.5729C13.7439 16.5557 13.7061 16.5432 13.6913 16.5382C13.6702 16.5311 13.6715 16.5312 13.6756 16.533C13.6974 16.5424 13.7445 16.569 13.7814 16.6194C13.8112 16.66 13.8076 16.6806 13.7996 16.6368L12.8159 16.8167ZM13.271 17.3945C13.2246 17.3284 13.2204 17.2795 13.2324 17.3294C13.2391 17.3571 13.2476 17.4022 13.257 17.4673C13.2758 17.5963 13.2932 17.7656 13.3109 17.9551C13.3438 18.3097 13.3789 18.765 13.4272 19.0147L14.409 18.8251C14.3731 18.6391 14.3441 18.2662 14.3066 17.8625C14.2889 17.6729 14.2695 17.4805 14.2466 17.3232C14.2352 17.245 14.2216 17.1658 14.2046 17.0951C14.193 17.0468 14.1634 16.9255 14.0897 16.8203L13.271 17.3945ZM13.4271 19.0143C13.5049 19.419 13.8212 19.8324 14.2706 20.0847L14.7602 19.2128C14.6454 19.1483 14.5579 19.0684 14.4979 18.9915C14.4352 18.9111 14.4136 18.8489 14.4091 18.8255L13.4271 19.0143ZM14.2721 20.0856C14.2876 20.0942 14.2467 20.0746 14.2092 20.0211C14.1732 19.9695 14.1715 19.9314 14.1756 19.9575C14.1801 19.987 14.1845 20.044 14.1865 20.1586C14.1884 20.2701 14.1878 20.4111 14.1878 20.6039H15.1878C15.1878 20.256 15.1918 19.9855 15.1637 19.8042C15.1474 19.6986 15.1139 19.5697 15.0285 19.4477C14.9417 19.3236 14.8339 19.2538 14.7587 19.2119L14.2721 20.0856ZM14.1878 20.6039C14.1878 20.8257 14.117 20.9157 14.0293 20.9843C13.9019 21.0841 13.7163 21.1515 13.4304 21.2465L13.7456 22.1955C13.9921 22.1136 14.3564 21.9983 14.6458 21.7717C14.975 21.5139 15.1878 21.1338 15.1878 20.6039H14.1878ZM13.4304 21.2465L13.4206 21.2497L13.7358 22.1987L13.7456 22.1955L13.4304 21.2465ZM13.4213 21.2495C13.3173 21.2838 13.1343 21.3194 12.8297 21.3773C12.5424 21.432 12.1815 21.5009 11.7743 21.6009C10.9588 21.801 9.94982 22.1269 8.91099 22.7263L9.41072 23.5925C10.3428 23.0547 11.2557 22.7578 12.0127 22.5721C12.3918 22.479 12.7298 22.4143 13.0166 22.3597C13.286 22.3085 13.5522 22.2594 13.735 22.199L13.4213 21.2495ZM8.91108 22.7262C7.87899 23.3214 7.43993 24.4432 7.24664 25.3108C7.14737 25.7564 7.10577 26.1663 7.08871 26.4641C7.08015 26.6135 7.07769 26.7362 7.07742 26.8229C7.07728 26.8662 7.07769 26.9007 7.07817 26.9251C7.07841 26.9373 7.07866 26.947 7.07887 26.954C7.07898 26.9575 7.07907 26.9604 7.07915 26.9626C7.07919 26.9636 7.07922 26.9646 7.07925 26.9653C7.07926 26.9657 7.07927 26.966 7.07929 26.9663C7.07929 26.9664 7.0793 26.9666 7.0793 26.9667C7.07931 26.9669 7.07931 26.967 7.57892 26.9471C8.07852 26.9272 8.07853 26.9274 8.07853 26.9275C8.07853 26.9275 8.07854 26.9277 8.07854 26.9277C8.07855 26.9278 8.07855 26.9279 8.07855 26.9279C8.07855 26.928 8.07855 26.9279 8.07854 26.9276C8.07852 26.9271 8.07848 26.9259 8.07842 26.9241C8.07832 26.9204 8.07815 26.9142 8.07798 26.9056C8.07764 26.8883 8.0773 26.8614 8.07741 26.826C8.07764 26.7551 8.07967 26.6506 8.08708 26.5213C8.10196 26.2614 8.13824 25.9075 8.22272 25.5283C8.39693 24.7462 8.74884 23.9741 9.41063 23.5925L8.91108 22.7262ZM7.57892 27.4471H27.4226V26.4471H7.57892V27.4471ZM26.3015 22.761C25.9933 22.5272 25.5775 22.3427 25.1636 22.1963C24.7413 22.047 24.2829 21.9244 23.8645 21.8276C23.4448 21.7306 23.0579 21.6577 22.7762 21.6092C22.6352 21.5849 22.52 21.5665 22.4395 21.5542C22.3993 21.5481 22.3677 21.5434 22.3459 21.5403C22.3351 21.5387 22.3266 21.5375 22.3208 21.5367C22.3178 21.5362 22.3155 21.5359 22.3139 21.5357C22.3131 21.5356 22.3125 21.5355 22.312 21.5354C22.3117 21.5354 22.3115 21.5354 22.3114 21.5353C22.3113 21.5353 22.3112 21.5353 22.3112 21.5353C22.3111 21.5353 22.3111 21.5353 22.2429 22.0306C22.1747 22.526 22.1747 22.526 22.1746 22.526C22.1746 22.526 22.1746 22.5259 22.1746 22.5259C22.1746 22.526 22.1747 22.526 22.1748 22.526C22.175 22.526 22.1753 22.526 22.1759 22.5261C22.1769 22.5263 22.1786 22.5265 22.181 22.5268C22.1857 22.5275 22.1929 22.5285 22.2025 22.5299C22.2218 22.5327 22.2508 22.537 22.2883 22.5427C22.3632 22.5542 22.4722 22.5715 22.6064 22.5946C22.8752 22.641 23.2427 22.7102 23.6391 22.8019C24.0367 22.8939 24.4558 23.0068 24.8302 23.1391C25.2129 23.2745 25.5128 23.4179 25.6971 23.5577L26.3015 22.761ZM27.4226 26.9471C27.9225 26.935 27.9225 26.9349 27.9224 26.9347C27.9224 26.9347 27.9224 26.9345 27.9224 26.9344C27.9224 26.9342 27.9224 26.9339 27.9224 26.9336C27.9224 26.9329 27.9224 26.9321 27.9224 26.9311C27.9223 26.9291 27.9222 26.9265 27.9221 26.9232C27.9219 26.9166 27.9216 26.9075 27.9211 26.8959C27.9202 26.8726 27.9187 26.8395 27.9162 26.7977C27.9114 26.7142 27.903 26.5954 27.8885 26.4503C27.8596 26.161 27.806 25.7627 27.7071 25.3282C27.5164 24.4903 27.1292 23.389 26.3015 22.761L25.6971 23.5577C26.2258 23.9588 26.5503 24.7514 26.7321 25.5502C26.8195 25.934 26.8674 26.2896 26.8934 26.5498C26.9064 26.6794 26.9138 26.7841 26.9179 26.8555C26.92 26.8911 26.9212 26.9183 26.9219 26.936C26.9223 26.9448 26.9225 26.9512 26.9226 26.9552C26.9227 26.9571 26.9227 26.9585 26.9227 26.9592C26.9228 26.9595 26.9228 26.9597 26.9228 26.9597C26.9228 26.9597 26.9228 26.9597 26.9228 26.9596C26.9228 26.9596 26.9228 26.9595 26.9228 26.9595C26.9228 26.9594 26.9227 26.9593 27.4226 26.9471Z" fill="#A9A9A9"/>
</svg>
