<svg width="19" height="18" fill="none" xmlns="http://www.w3.org/2000/svg"><path d="M9.388 16.65a.352.352 0 01-.03-.19c.01-.052-.024-.094-.102-.127-.079-.032-.118-.058-.118-.077 0-.019-.056-.033-.169-.042l-.168-.014H4.224c-.645 0-1.198-.22-1.657-.661-.46-.44-.69-.97-.69-1.59v-9.9c0-.618.23-1.148.69-1.588A2.31 2.31 0 014.224 1.8h4.694c.127 0 .227-.03.3-.092a.461.461 0 00.147-.274 2.274 2.274 0 00.037-.703A6.2 6.2 0 019.388.45a.424.424 0 00-.14-.317.462.462 0 00-.33-.133H4.224C3.061 0 2.066.396 1.24 1.188.413 1.98 0 2.934 0 4.05v9.9c0 1.115.413 2.07 1.24 2.861C2.065 17.604 3.06 18 4.223 18h4.694c.128 0 .228-.03.301-.091a.461.461 0 00.147-.275 2.278 2.278 0 00.036-.703 6.063 6.063 0 01-.014-.281z" fill="#5C5C5C"/><path d="M18.791 8.482l-5.973-6.263A.66.66 0 0012.325 2a.661.661 0 00-.494.219.726.726 0 00-.208.518v3.316h-4.92a.66.66 0 00-.493.218.725.725 0 00-.21.519v4.421c0 .2.07.373.209.519a.661.661 0 00.494.218h4.919v3.316c0 .2.07.372.208.518a.66.66 0 00.495.219.66.66 0 00.494-.219l5.972-6.263A.725.725 0 0019 9c0-.2-.07-.372-.209-.518z" fill="#5C5C5C"/></svg>