<svg width="24" height="24" fill="none" xmlns="http://www.w3.org/2000/svg"><path d="M12 4.845l-8.56 8.867a.314.314 0 01-.007.056.316.316 0 00-.008.055v8.98c0 .323.095.604.283.84.189.238.412.357.67.357h5.716v-7.183h3.812V24h5.716c.258 0 .481-.119.67-.356a1.31 1.31 0 00.283-.842v-8.979a.324.324 0 00-.015-.111L12 4.845z" fill="#fff"/><path d="M23.834 11.691l-3.26-3.404V.655a.668.668 0 00-.134-.43.417.417 0 00-.342-.169H17.24a.419.419 0 00-.342.169.67.67 0 00-.134.43v3.647L13.132.486A1.529 1.529 0 0012 0a1.53 1.53 0 00-1.131.486L.165 11.691a.6.6 0 00-.163.402.718.718 0 00.104.44l.923 1.385c.08.112.183.18.312.205.12.013.239-.03.358-.13L12 3.198l10.301 10.793c.08.087.184.13.313.13h.045a.486.486 0 00.312-.205l.923-1.384a.717.717 0 00.104-.44.6.6 0 00-.164-.402z" fill="#fff"/></svg>