<svg width="29" height="28" fill="none" xmlns="http://www.w3.org/2000/svg"><path d="M17.885 10.914A6.535 6.535 0 0013.265 9a6.506 6.506 0 00-4.62 1.913l-5.936 5.94A6.531 6.531 0 007.329 28a6.492 6.492 0 004.615-1.904l4.9-4.899a.467.467 0 00-.331-.798h-.187a7.855 7.855 0 01-2.987-.578.467.467 0 00-.508.102l-3.523 3.528a2.802 2.802 0 01-3.962-3.962l5.959-5.953a2.8 2.8 0 013.957 0 1.913 1.913 0 002.623 0c.317-.317.509-.738.541-1.185a1.866 1.866 0 00-.541-1.437z" fill="#fff"/><path d="M26.886 1.913a6.534 6.534 0 00-9.24 0l-4.895 4.89a.467.467 0 00.34.798h.173a7.84 7.84 0 012.982.583.467.467 0 00.509-.103l3.514-3.508a2.802 2.802 0 013.962 3.961l-4.378 4.372-.037.042-1.53 1.52a2.8 2.8 0 01-3.958 0 1.914 1.914 0 00-2.623 0 1.87 1.87 0 00-.541 1.195 1.866 1.866 0 00.541 1.437c.54.543 1.172.985 1.867 1.307.098.046.196.084.294.126.098.042.2.074.299.112.098.037.2.07.298.098l.276.074c.186.047.373.084.564.117.23.034.463.056.695.065h.356l.28-.032c.103-.005.21-.028.332-.028h.158l.322-.047.15-.028.27-.056h.052a6.533 6.533 0 003.028-1.717l5.94-5.94a6.531 6.531 0 000-9.238z" fill="#fff"/></svg>