<svg width="35" height="35" fill="none" xmlns="http://www.w3.org/2000/svg"><path d="M12.364 19.31a.794.794 0 00-.794-.794H8.797a.794.794 0 00-.794.793v2.772c0 .44.356.794.794.794h2.773a.794.794 0 00.794-.794V19.31zm6.928 0a.794.794 0 00-.794-.794h-2.772a.794.794 0 00-.794.793v2.772c0 .44.356.794.794.794h2.772a.794.794 0 00.794-.794V19.31zm6.928 0a.794.794 0 00-.793-.794h-2.772a.794.794 0 00-.795.793v2.772c0 .44.356.794.795.794h2.772a.794.794 0 00.794-.794V19.31zm-13.856 6.928a.794.794 0 00-.794-.794H8.797a.794.794 0 00-.794.794v2.771c0 .44.356.794.794.794h2.773a.794.794 0 00.794-.794v-2.77zm6.928 0a.794.794 0 00-.794-.794h-2.772a.794.794 0 00-.794.794v2.771c0 .44.356.794.794.794h2.772a.794.794 0 00.794-.794v-2.77zm6.928 0a.794.794 0 00-.793-.794h-2.772a.794.794 0 00-.795.794v2.771c0 .44.356.794.795.794h2.772a.794.794 0 00.794-.794v-2.77z" fill="#fff"/><path d="M31.178 3.897v4.234a3.458 3.458 0 01-3.466 3.456h-2.186c-1.914 0-3.487-1.542-3.487-3.456V3.88h-9.854v4.25c0 1.914-1.573 3.456-3.486 3.456H6.512A3.458 3.458 0 013.046 8.13V3.897A3.151 3.151 0 000 7.032v24.812C0 33.577 1.404 35 3.137 35h27.95c1.73 0 3.137-1.426 3.137-3.156V7.032c0-1.7-1.374-3.085-3.046-3.135zM30.162 30.3c0 .749-.607 1.356-1.356 1.356H5.358A1.356 1.356 0 014.002 30.3V17.483c0-.75.607-1.357 1.356-1.357h23.448c.749 0 1.356.608 1.356 1.357v12.816z" fill="#fff"/><path d="M6.504 9.317h2.163c.656 0 1.188-.532 1.188-1.188V1.19C9.855.531 9.323 0 8.667 0H6.504c-.656 0-1.188.532-1.188 1.188V8.13c0 .656.532 1.188 1.188 1.188zm18.994 0h2.162c.656 0 1.189-.532 1.189-1.188V1.19c0-.659-.532-1.19-1.189-1.19h-2.162c-.657 0-1.189.532-1.189 1.188V8.13c0 .656.532 1.188 1.189 1.188z" fill="#fff"/></svg>