<svg width="35" height="35" fill="none" xmlns="http://www.w3.org/2000/svg"><path d="M29.736 17.822H35v-6.441H2.05c-.75 0-1.444-.228-2.05-.598v18.849C0 32.592 2.3 35 5.127 35H35v-6.442h-5.264c-2.826 0-5.127-2.408-5.127-5.368 0-2.96 2.3-5.368 5.127-5.368zm-12.304 4.295c1.696 0 3.076 1.444 3.076 3.22 0 1.398-.86 2.579-2.051 3.024v2.345h-2.05V28.36c-1.192-.445-2.052-1.626-2.052-3.023h2.051c0 .592.46 1.073 1.026 1.073.565 0 1.025-.481 1.025-1.073 0-.593-.46-1.074-1.025-1.074-1.697 0-3.076-1.445-3.076-3.22 0-1.399.86-2.58 2.05-3.024v-2.345h2.051v2.345c1.191.445 2.05 1.625 2.05 3.023h-2.05c0-.592-.46-1.073-1.025-1.073-.566 0-1.026.48-1.026 1.073s.46 1.074 1.026 1.074z" fill="#fff"/><path d="M29.736 19.97c-1.696 0-3.076 1.444-3.076 3.22 0 1.776 1.38 3.221 3.076 3.221H35V19.97h-5.264zm1.026 4.294H28.71v-2.147h2.05v2.147zM13.33 0L6.276 9.234h14.109L13.33 0zm8.203 0l-2.788 3.65 4.267 5.584h5.576L21.533 0zm6.4 4.94l3.282 4.293h1.598V4.94h-4.88zm-25.883 0C.919 4.94 0 5.9 0 7.085s.918 2.148 2.05 2.148h1.598L6.93 4.939H2.05z" fill="#fff"/></svg>