<svg width="24" height="24" fill="none" xmlns="http://www.w3.org/2000/svg"><path d="M22.908 5.5h-5.105a8.77 8.77 0 011.77 2.182h3.335a1.09 1.09 0 100-2.182zm0 2.75h-3.04c.327.685.57 1.415.71 2.182h2.33a1.09 1.09 0 100-2.181zm0-5.5h-8.076c-.47 0-.866.299-1.02.714A8.69 8.69 0 0117.1 4.932h5.81a1.091 1.091 0 10-.001-2.182zm-8.076-.569h8.076a1.09 1.09 0 100-2.181h-8.076a1.091 1.091 0 100 2.181zM22.908 11h-2.243c.037.329.061.661.061 1 0 .401-.036.795-.09 1.182h2.271a1.091 1.091 0 000-2.182zm0 2.75h-2.359a8.614 8.614 0 01-.77 2.182h3.129a1.09 1.09 0 100-2.181zm0 2.75h-3.446a8.767 8.767 0 01-1.861 2.182h5.307a1.091 1.091 0 100-2.182zM1.091 13h2.243a8.735 8.735 0 01-.061-1c0-.401.036-.794.089-1.182h-2.27a1.092 1.092 0 000 2.182zm0 2.75h3.04a8.668 8.668 0 01-.71-2.18h-2.33a1.09 1.09 0 100 2.18zm0-5.5H3.45c.157-.77.423-1.5.77-2.181H1.09a1.09 1.09 0 100 2.181zm0-2.75h3.446a8.787 8.787 0 011.86-2.181H1.092a1.09 1.09 0 100 2.181zm0 11h5.105a8.768 8.768 0 01-1.77-2.181H1.091a1.09 1.09 0 100 2.18zm0 2.75h8.076c.47 0 .866-.298 1.02-.714A8.686 8.686 0 016.9 19.07H1.091a1.09 1.09 0 100 2.181zm8.076.57H1.09a1.09 1.09 0 100 2.18h8.076a1.091 1.091 0 100-2.18zM12 4.364c-4.211 0-7.636 3.425-7.636 7.636 0 4.21 3.425 7.637 7.635 7.637 4.211 0 7.636-3.426 7.636-7.637 0-4.211-3.425-7.636-7.636-7.636zm0 13.09A5.46 5.46 0 016.544 12a5.46 5.46 0 015.454-5.455A5.46 5.46 0 0117.454 12a5.46 5.46 0 01-5.455 5.455z" fill="#fff"/><path d="M12.318 11.263V9.378c1.097.02 1.09 1.081 1.734 1.081.337 0 .626-.227.626-.614 0-.972-1.587-1.458-2.36-1.478v-.529c0-.169-.13-.337-.3-.337-.167 0-.295.168-.295.337v.529c-1.24.038-2.361.734-2.361 2.082 0 1.102.89 1.747 2.36 2.014v2.073c-1.648-.07-.784-1.438-1.895-1.438-.375 0-.614.23-.614.625 0 .784.833 1.786 2.51 1.827v.614c0 .168.128.337.295.337.17 0 .3-.169.3-.337v-.614c1.477-.09 2.468-.765 2.468-2.094 0-1.528-1.159-1.915-2.468-2.193zm-.595-.109c-.744-.15-1.113-.436-1.113-.933 0-.426.436-.823 1.113-.844v1.777zm.595 3.382v-1.964c.534.118 1.22.317 1.22.99 0 .655-.626.934-1.22.974z" fill="#fff"/></svg>