<svg width="35" height="35" fill="none" xmlns="http://www.w3.org/2000/svg"><path d="M30.832 6.979c0-.623-.64-.805-1.14-.915v1.812c.557-.037 1.14-.295 1.14-.897zm-1.696-3.863c-.63.018-1.039.385-1.039.778 0 .458.345.724 1.04.86l-.001-1.638z" fill="#fff"/><path d="M29.396 11.07C32.487 11.07 35 8.588 35 5.537 35 2.484 32.486 0 29.396 0c-3.09 0-5.605 2.483-5.605 5.536 0 3.051 2.514 5.535 5.605 5.535zm-2.464-6.965c0-1.244 1.047-1.887 2.205-1.922v-.487c0-.158.12-.312.277-.312.158 0 .279.154.279.312v.487c.721.018 2.205.466 2.205 1.365 0 .356-.27.566-.584.566-.604 0-.594-.979-1.62-.998v1.74C30.918 5.112 32 5.469 32 6.879c0 1.226-.926 1.849-2.306 1.932v.566c0 .156-.121.312-.28.312-.156 0-.276-.156-.276-.312V8.81c-1.566-.038-2.344-.962-2.344-1.686 0-.365.223-.577.574-.577 1.038 0 .231 1.263 1.77 1.328V5.962c-1.373-.247-2.206-.841-2.206-1.857zM6.837 24.658H2.006a1.6 1.6 0 00-1.61 1.59v7.16a1.6 1.6 0 001.61 1.59h4.83a1.6 1.6 0 001.61-1.59v-7.16a1.6 1.6 0 00-1.61-1.59zm12.486-5.568h-4.831a1.6 1.6 0 00-1.61 1.592v12.727A1.6 1.6 0 0014.492 35h4.831a1.6 1.6 0 001.61-1.591v-12.73a1.6 1.6 0 00-1.61-1.588zm12.487-6.363h-4.83a1.6 1.6 0 00-1.61 1.59v19.09A1.6 1.6 0 0026.98 35h4.83a1.6 1.6 0 001.611-1.592v-19.09a1.6 1.6 0 00-1.61-1.591zM22.154 8.17l-3.999-.826a.812.812 0 00-.809.301.788.788 0 00-.066.852l.886 1.647-17.73 9.034A.79.79 0 00.09 20.25a.807.807 0 001.085.342l17.747-9.044.813 1.51c.14.261.414.423.711.423l.04-.002a.804.804 0 00.706-.494l1.544-3.736a.783.783 0 00-.035-.674.817.817 0 00-.547-.404z" fill="#fff"/></svg>