<svg width="27" height="27" fill="none" xmlns="http://www.w3.org/2000/svg"><path d="M19.549 0H7.45C3.342 0 0 3.343 0 7.451V19.55C0 23.658 3.342 27 7.45 27h12.1c4.108 0 7.45-3.342 7.45-7.45V7.45C27 3.343 23.658 0 19.55 0zm5.055 19.55a5.061 5.061 0 01-5.055 5.055H7.45a5.061 5.061 0 01-5.056-5.056V7.451A5.061 5.061 0 017.45 2.396h12.098a5.061 5.061 0 015.055 5.055V19.55z" fill="#2B2B2B"/><path d="M13.5 6.543a6.965 6.965 0 00-6.957 6.958 6.965 6.965 0 006.957 6.956 6.965 6.965 0 006.958-6.957A6.965 6.965 0 0013.5 6.544zm0 11.519A4.567 4.567 0 018.94 13.5a4.567 4.567 0 014.56-4.56 4.567 4.567 0 014.562 4.561 4.567 4.567 0 01-4.562 4.562zm7.25-13.55c-.462 0-.916.187-1.242.514a1.77 1.77 0 00-.516 1.243c0 .462.189.915.516 1.242.326.326.78.515 1.241.515.463 0 .915-.189 1.243-.515a1.77 1.77 0 00.514-1.242c0-.463-.187-.917-.514-1.243a1.764 1.764 0 00-1.243-.514z" fill="#2B2B2B"/></svg>