<svg width="18" height="24" fill="none" xmlns="http://www.w3.org/2000/svg"><path d="M13.75 0H1.493C.67 0 0 .66 0 1.472v21.056C0 23.34.67 24 1.493 24h15.014C17.33 24 18 23.34 18 22.528V4.551L13.75 0zm.352 2.202l1.863 1.996h-1.863V2.202zm2.644 20.326c0 .13-.108.236-.24.236H1.493a.238.238 0 01-.239-.236V1.472c0-.13.107-.235.24-.235h11.354v3.579c0 .34.281.617.627.617h3.27v17.095zM3.466 6.573h10.65c.26 0 .47.208.47.463 0 .256-.21.464-.47.464H3.466a.467.467 0 01-.47-.464c0-.255.211-.463.47-.463zm11.12 3.575c0 .256-.21.463-.47.463H3.466a.467.467 0 01-.47-.463c0-.256.211-.463.47-.463h10.65c.26 0 .47.207.47.463zm0 3.01c0 .255-.21.463-.47.463H3.466a.467.467 0 01-.47-.463c0-.256.211-.463.47-.463h10.65c.26 0 .47.207.47.463zm0 3.06c0 .256-.21.464-.47.464H3.466a.467.467 0 01-.47-.463c0-.256.211-.463.47-.463h10.65c.26 0 .47.207.47.463z" fill="#fff"/></svg>