<svg width="224" height="30" fill="none" xmlns="http://www.w3.org/2000/svg"><path d="M25.12 9.6h8.142V30H25.12V9.6zm35.514 1.714h13.86v7.029h-13.86v-7.029zM33.262 4.029c0 2.224-1.823 4.028-4.071 4.028-2.248 0-4.071-1.804-4.071-4.028C25.12 1.804 26.943 0 29.19 0c2.248 0 4.071 1.804 4.071 4.029z" fill="#E03D22"/><path fill-rule="evenodd" clip-rule="evenodd" d="M58.382 10.963C58.347 4.903 53.231 0 46.966 0 40.7 0 35.636 4.852 35.549 10.879l-.034 18.092V30h8.489V11.111a3.11 3.11 0 013.117-3.1 3.11 3.11 0 013.118 3.184V30h8.143V10.963zM0 30h8.214V12.32c0-2.87 1.044-4.313 3.15-4.313.888 0 1.636.292 2.263.893.626.602.94 1.323.94 2.182a3.03 3.03 0 01-.905 2.2c-.61.618-1.323.928-2.176.928-.6 0-1.187-.216-1.785-.634v8.75c.843.088 1.496.13 1.96.13 3.027 0 5.655-1.116 7.883-3.332 2.21-2.217 3.324-4.863 3.324-7.921 0-3.145-1.114-5.79-3.36-7.956C17.265 1.082 14.515 0 11.26 0 9.624 0 8.023.36 6.474 1.065c-1.549.705-2.837 1.65-3.846 2.853C.87 5.997 0 8.694 0 11.992V30zm101.865 0h8.215V12.32c0-2.87 1.044-4.313 3.15-4.313.887 0 1.636.292 2.262.893.627.602.94 1.323.94 2.182a3.03 3.03 0 01-.905 2.2c-.609.618-1.323.928-2.175.928-.601 0-1.188-.216-1.785-.634v8.75c.843.088 1.496.13 1.959.13 3.028 0 5.656-1.116 7.883-3.332 2.21-2.217 3.324-4.863 3.324-7.921 0-3.145-1.114-5.79-3.359-7.956C119.129 1.082 116.38 0 113.125 0c-1.636 0-3.237.36-4.786 1.065-1.548.705-2.836 1.65-3.846 2.853-1.757 2.079-2.628 4.776-2.628 8.075V30zM76.746 1.029l.034 18.092C76.867 25.148 81.931 30 88.197 30c6.265 0 11.381-4.902 11.416-10.963V.686h-8.142v18.12h-.001v.083a3.11 3.11 0 01-3.117 3.1 3.11 3.11 0 01-3.118-3.184V.685h-8.49v.345h.001zm0-1.029h8.488-8.489zM91.47 0h8.142-8.142z" fill="#E03D22"/><path d="M136.791 29.983v-8.04l7.969.086-7.848 7.954h-.121z" fill="#24BB9D"/><path fill-rule="evenodd" clip-rule="evenodd" d="M137.033 0c-3.348 0-6.063 2.686-6.063 6v10.114c0 3.314 2.715 6 6.063 6h80.904c3.348 0 6.063-2.686 6.063-6V6c0-3.314-2.715-6-6.063-6h-80.904zm1.906 14.585c0-1.16-.961-2.07-2.252-2.07s-2.252.91-2.252 2.07c0 1.132 1.021 2.043 2.252 2.043 1.231 0 2.252-.91 2.252-2.043zm1.559-3.095c0-1.101.029-2.116.468-3.073.878-1.914 2.78-3.103 4.975-3.103 3.131 0 5.471 2.29 5.471 5.568 0 3.218-2.282 5.567-5.471 5.567-.381 0-.849-.058-1.493-.174v-3.509c.586.174 1.024.29 1.376.29 1.316 0 2.106-.84 2.106-2.145 0-1.334-.79-2.146-1.989-2.146-1.288 0-2.019.84-2.019 2.377v9.772h-3.424V11.49zm17.728-2.723c1.379 0 2.083.784 2.083 2.38v5.136h3.403v-4.498c0-1.248 0-2.321-.469-3.366-.88-1.915-2.758-3.105-4.958-3.105-3.14 0-5.487 2.322-5.487 5.572 0 3.22 2.289 5.571 5.487 5.571.381 0 .851-.029 1.496-.174v-3.511c-.587.174-1.027.29-1.379.29-1.32 0-2.112-.841-2.112-2.147 0-1.306.821-2.148 1.936-2.148zm6.872-3.11h3.051v1.58c.684-1.149 1.739-1.58 3.307-1.58h.399v3.217h-.143c-2.423 0-3.392 1.006-3.392 3.419v3.993h-3.222V5.657zm11.428.029v-2.6h-3.285v8.8c0 3.028 1.472 4.4 4.672 4.4h1.218V13.17h-1.501c-.821 0-1.104-.285-1.104-1.028V8.8h2.605V5.686h-2.605zm10.382 4.591c0-1.015-.627-1.683-1.541-1.683-.913 0-1.54.697-1.54 1.684v6.008h-3.31v-5.457c0-3.512 2.054-5.515 4.85-5.515 1.598 0 3.025.755 3.967 2.061.713 1.016.884 2.09.884 3.454v5.457h-3.31v-6.009zm6.292 4.55a5.356 5.356 0 003.831 1.63c2.554 0 4.702-1.484 5.834-4.19l-2.554-1.25c-.755 1.454-1.858 2.21-3.106 2.21-1.306 0-2.379-1.134-2.379-2.647s1.073-2.647 2.379-2.647c.407 0 .813.116 1.19.378l-2.815 1.978 1.306 1.979 5.224-3.55c-1.132-2.24-2.902-3.404-5.079-3.404-1.451 0-2.815.553-3.831 1.6a5.648 5.648 0 00-1.596 3.957c0 1.513.552 2.88 1.596 3.957zm11.051-9.17h3.05v1.58c.684-1.149 1.739-1.58 3.307-1.58h.399v3.217h-.142c-2.424 0-3.393 1.006-3.393 3.419v3.993h-3.221V5.657zm12.787 7.248c0 .287-.23.401-.603.401h-4.042v2.98h3.526c1.348 0 2.409 0 3.297-.573.832-.573 1.319-1.433 1.319-2.435 0-1.548-.946-2.521-2.895-3.324l-1.491-.63c-.144-.057-.287-.23-.287-.401 0-.23.229-.401.516-.401h3.584V5.657h-3.641c-2.408 0-3.756 1.175-3.756 2.95 0 1.462.86 2.493 2.638 3.238l1.548.63c.143.086.287.23.287.43z" fill="#24BB9D"/></svg>