<svg width="24" height="24" fill="none" xmlns="http://www.w3.org/2000/svg"><path d="M21.75 0H5.25A2.25 2.25 0 003 2.25v1.5h-.75A2.25 2.25 0 000 6v15a3 3 0 003 3h18a3 3 0 003-3V2.25A2.25 2.25 0 0021.75 0zm.75 21c0 .826-.674 1.5-1.5 1.5H3c-.827 0-1.5-.674-1.5-1.5V6a.75.75 0 01.75-.75H3v15a.75.75 0 101.5 0v-18a.75.75 0 01.75-.75h16.5a.75.75 0 01.75.75V21z" fill="#fff"/><path d="M14.624 9.754h6a.375.375 0 100-.75h-6a.376.376 0 000 .75zm0-2.25h6a.375.375 0 100-.75h-6a.376.376 0 000 .75zm0-2.25h6a.375.375 0 100-.75h-6a.376.376 0 000 .75zm-2.249 14.999h-6a.376.376 0 000 .75h6a.375.375 0 000-.75zm0-2.25h-6a.376.376 0 000 .75h6a.375.375 0 000-.75zm0-2.25h-6a.376.376 0 000 .75h6a.375.375 0 000-.75zm8.25 4.5h-6a.375.375 0 000 .75h6a.375.375 0 000-.75zm0-2.25h-6a.375.375 0 000 .75h6a.375.375 0 000-.75zm0-2.25h-6a.375.375 0 000 .75h6a.375.375 0 000-.75zm0-4.5H6.375a.375.375 0 000 .75h14.25a.376.376 0 000-.75zm0 2.25H6.375a.376.376 0 000 .75h14.25a.375.375 0 000-.75zM6.75 9.75H12a.75.75 0 00.75-.75V3.753a.75.75 0 00-.75-.75H6.75a.75.75 0 00-.75.75V9c0 .414.335.75.75.75zM7.5 4.5h3.75v3.75H7.5V4.5z" fill="#fff"/></svg>