<svg width="34" height="35" fill="none" xmlns="http://www.w3.org/2000/svg"><path d="M18.841 30.639a2.007 2.007 0 01-1.103.764L15.524 32a1.983 1.983 0 01-1.67-.28 1.945 1.945 0 01-.843-1.437l-.195-2.257c-.046-.463.08-.926.347-1.3l.082-.115h-7.9a1.154 1.154 0 01-1.155-1.146c0-.63.517-1.148 1.154-1.148h9.563l2.137-3.012h-11.7a1.154 1.154 0 01-1.154-1.147c0-.629.517-1.148 1.154-1.148l13.346-.033 5.005-7.08V6.655a1.54 1.54 0 00-1.547-1.557h-3.83V8.09c0 1.412-1.171 2.53-2.6 2.53H8.013c-1.433 0-2.562-1.118-2.562-2.53V5.098H1.578C.706 5.098 0 5.794 0 6.655v26.75C0 34.266.707 35 1.578 35h20.569c.873 0 1.547-.735 1.547-1.595V23.84l-4.853 6.799zM5.344 13.703h13.039c.636 0 1.154.518 1.154 1.147s-.518 1.147-1.154 1.147H5.344A1.154 1.154 0 014.19 14.85c0-.629.517-1.147 1.154-1.147z" fill="#fff"/><path d="M8.034 9.114h7.698A1.05 1.05 0 0016.79 8.07V3.702a1.05 1.05 0 00-1.057-1.043h-1.16C14.566 1.191 13.356 0 11.864 0s-2.7 1.19-2.71 2.659H8.035a1.05 1.05 0 00-1.056 1.043V8.07a1.05 1.05 0 001.056 1.044zm3.83-7.633A1.2 1.2 0 0113.07 2.66h-2.417a1.202 1.202 0 011.21-1.179zm21.569 5.551a.742.742 0 00-.311-.477L31.195 5.23a.75.75 0 00-1.041.182L16.5 24.73l3.154 2.17L33.309 7.583a.737.737 0 00.124-.551zM14.35 27.883l.197 2.268c.01.13.08.248.188.323a.46.46 0 00.254.081.427.427 0 00.117-.016l2.227-.602a.452.452 0 00.248-.172l.836-1.183-3.156-2.17-.836 1.182a.425.425 0 00-.075.289z" fill="#fff"/></svg>