<svg width="18" height="18" fill="none" xmlns="http://www.w3.org/2000/svg"><path fill-rule="evenodd" clip-rule="evenodd" d="M17.944 8c-.029-.252-.324-.442-.579-.442a2 2 0 01-1.864-1.234 2.005 2.005 0 01.504-2.225.5.5 0 00.055-.679 8.911 8.911 0 00-1.426-1.44.501.501 0 00-.684.055c-.537.595-1.5.815-2.245.505A2 2 0 0110.489.586a.5.5 0 00-.442-.526A8.986 8.986 0 008.023.055a.5.5 0 00-.446.515 2.002 2.002 0 01-1.232 1.92c-.736.3-1.693.081-2.228-.507a.502.502 0 00-.68-.058 8.94 8.94 0 00-1.456 1.44.5.5 0 00.054.684c.627.567.829 1.47.503 2.246C2.228 7.035 1.46 7.51.58 7.51a.49.49 0 00-.52.442A9.016 9.016 0 00.056 10c.029.254.333.443.59.443.784-.02 1.537.465 1.852 1.233a2.001 2.001 0 01-.503 2.225.5.5 0 00-.055.679 8.943 8.943 0 001.424 1.44.5.5 0 00.685-.054c.539-.596 1.502-.816 2.244-.505a1.996 1.996 0 011.218 1.954.5.5 0 00.441.525 8.95 8.95 0 002.025.006.5.5 0 00.446-.516 2 2 0 011.231-1.919c.74-.302 1.694-.081 2.23.507a.503.503 0 00.678.057 8.96 8.96 0 001.456-1.44.5.5 0 00-.053-.684 1.994 1.994 0 01-.505-2.245 2.015 2.015 0 011.842-1.22l.11.003a.501.501 0 00.528-.441A9.01 9.01 0 0017.944 8zm-8.93 4.021A3.005 3.005 0 016.012 9.02a3.005 3.005 0 013.002-3.002 3.005 3.005 0 013.002 3.002 3.005 3.005 0 01-3.002 3.002z" fill="#5C5C5C"/></svg>