<svg width="27" height="27" fill="none" xmlns="http://www.w3.org/2000/svg"><path d="M25.697 1.114A2.846 2.846 0 0024.42.482H2.508c-.486.108-.93.338-1.283.666a2.46 2.46 0 00-.717 1.191v15.743c.112.414.321.8.613 1.13.291.33.658.595 1.073.778h7.005c.716.292 1.395.657 2.024 1.088a11.942 11.942 0 012.474 2.306c.506.607.638.877 1.513 1.927.356.428.659.773.865 1.004.032.019.732.404 1.427.06.169-.087.317-.205.435-.346.12-.142.206-.304.257-.477v-5.554h6.236a2.413 2.413 0 001.392-.623c.374-.348.61-.803.67-1.292V2.405a2.547 2.547 0 00-.796-1.29zm-.382 1.252v15.489a1.12 1.12 0 01-.272.693 1.27 1.27 0 01-.665.405h-6.43a1.184 1.184 0 00-.661.313 1.04 1.04 0 00-.319.624v5.595a55.731 55.731 0 00-3.69-4.177 8.17 8.17 0 00-2.335-1.767 7.95 7.95 0 00-1.758-.615H2.468a1.227 1.227 0 01-.498-.308 1.123 1.123 0 01-.31-.763V2.54a.963.963 0 01.313-.7c.2-.186.471-.29.754-.29h21.708a.947.947 0 01.36.066.779.779 0 01.519.75z" fill="#2B2B2B"/><path fill-rule="evenodd" clip-rule="evenodd" d="M24.477 0l.056.012A3.35 3.35 0 0126.04.76l-.343.355.345-.354c.468.413.797.945.944 1.532l.014.055V18.11l-.004.028a2.586 2.586 0 01-.82 1.582 2.934 2.934 0 01-1.691.757l-.028.003h-5.755v5.138l-.019.063a1.787 1.787 0 01-.349.648 1.93 1.93 0 01-.588.47l-.01.004a1.886 1.886 0 01-.26.106v.007l-.004-.006c-.392.125-.763.1-1.042.042a2.251 2.251 0 01-.617-.223l-.072-.041-.054-.061a39.888 39.888 0 01-.875-1.017l.398-.299c.356.428.659.773.865 1.005.027.015.507.28 1.065.18a1.359 1.359 0 00.362-.12c.169-.088.317-.206.435-.347.12-.142.206-.303.257-.477v-5.554h6.236a2.414 2.414 0 001.392-.622c.374-.348.61-.804.67-1.293V2.405a2.548 2.548 0 00-.795-1.29A2.846 2.846 0 0024.42.482H2.508c-.486.108-.93.338-1.283.666-.353.328-.602.74-.717 1.192v15.742c.112.414.321.8.613 1.13.291.33.658.596 1.073.778h7.005c.716.293 1.395.657 2.024 1.088a11.947 11.947 0 012.474 2.306c.219.263.368.463.538.69.222.297.48.642.975 1.237l-.398.3a26.312 26.312 0 01-.992-1.259c-.17-.227-.311-.416-.522-.67l-.005-.006a11.441 11.441 0 00-2.369-2.208 10.356 10.356 0 00-1.83-.996H2.081l-.102-.044a3.599 3.599 0 01-1.248-.906 3.293 3.293 0 01-.716-1.32L0 18.144V2.282l.014-.057C.153 1.685.45 1.194.87.804c.42-.39.947-.664 1.522-.791L2.45 0h22.029zm.838 2.366a.779.779 0 00-.52-.75.948.948 0 00-.36-.066H2.727a1.11 1.11 0 00-.753.29.958.958 0 00-.313.7v15.315c.001.28.111.551.31.763.135.14.306.245.497.308h6.717a7.952 7.952 0 011.758.616 8.173 8.173 0 012.336 1.767 54.528 54.528 0 013.69 4.176V19.89c.028-.235.14-.454.318-.624.177-.17.41-.28.662-.313h6.429a1.27 1.27 0 00.665-.404 1.12 1.12 0 00.272-.694V2.366zm-.508 15.481V2.367h.508l-.508-.011a.31.31 0 00-.083-.217.416.416 0 00-.282-.108H2.728a.589.589 0 00-.4.154.487.487 0 00-.16.356v15.313c.002.16.064.316.179.44a.705.705 0 00.218.15h6.679l.057.013a8.473 8.473 0 011.875.656l.007.003a8.674 8.674 0 012.473 1.87 54.012 54.012 0 012.805 3.096v-4.22l.003-.028c.042-.343.206-.662.462-.908.257-.245.592-.403.952-.45l.035-.005h6.392a.754.754 0 00.343-.226.653.653 0 00.159-.398z" fill="#2B2B2B"/><path d="M22.46 8.564a.587.587 0 00-.2-.17.636.636 0 00-.26-.07H4.99a.984.984 0 00-.475.24.875.875 0 00-.26.442v2.035c.082.475.31.917.654 1.276.345.358.794.617 1.292.745h2.782a3.091 3.091 0 001.658-.71c.345-.298.607-.67.764-1.083V9.5h4.05v1.781c.213.429.522.81.908 1.117a3.63 3.63 0 001.327.664h3.055c.409-.15.779-.377 1.087-.668.308-.29.546-.638.7-1.02V8.98a.508.508 0 00-.071-.415zM10.382 10.84c-.054.075-.97 1.306-2.609 1.259-1.53-.045-2.354-1.167-2.428-1.272l.014-1.443 5.023.01v1.446zm11.186 0c-.054.075-.97 1.306-2.609 1.259-1.531-.045-2.354-1.167-2.429-1.272l.015-1.443 5.023.01v1.446z" fill="#2B2B2B"/><path fill-rule="evenodd" clip-rule="evenodd" d="M22.014 7.841h.014c.167.01.33.054.477.13.147.077.274.185.37.316l-.414.277a.59.59 0 00-.2-.17.637.637 0 00-.262-.07H4.991a.984.984 0 00-.476.24.875.875 0 00-.26.442v2.035c.082.474.31.917.654 1.275a2.74 2.74 0 001.292.746h2.782a3.09 3.09 0 001.658-.71c.345-.299.607-.67.764-1.084V9.501h4.05v1.78c.213.43.522.81.908 1.118.386.307.838.533 1.327.663h3.055c.409-.15.779-.377 1.087-.667.308-.29.546-.638.7-1.02V8.98a.504.504 0 00-.071-.415l.428-.258a.988.988 0 01.152.722v2.437l-.034.083c-.18.446-.459.85-.817 1.189a3.677 3.677 0 01-1.262.775l-.088.032h-3.22l-.067-.018a4.14 4.14 0 01-1.517-.758 3.8 3.8 0 01-1.04-1.281l-.049-.098V9.983h-3.034v1.37l-.03.08a3.202 3.202 0 01-.9 1.275l-.003.003a3.61 3.61 0 01-1.937.83l-.03.003h-2.88l-.065-.017a3.255 3.255 0 01-1.534-.885 2.913 2.913 0 01-.78-1.523l-.006-.039V8.953l.012-.051c.06-.26.2-.497.4-.682a1.5 1.5 0 01.725-.368l.052-.01h17.077zm-3.056 4.257c1.638.048 2.555-1.183 2.609-1.258V9.394l-5.023-.01-.015 1.442c.075.106.898 1.228 2.429 1.272zm-1.92-1.429c.23.27.888.917 1.936.947a2.575 2.575 0 001.58-.488 2.979 2.979 0 00.505-.452v-.8l-4.012-.009-.008.802zm-9.25.947a2.575 2.575 0 001.58-.488 2.978 2.978 0 00.505-.452v-.8l-4.012-.009-.008.802c.23.27.887.917 1.935.947zm-2.444-.79c.074.106.897 1.228 2.428 1.272 1.639.048 2.555-1.183 2.61-1.258V9.394l-5.024-.01-.014 1.442z" fill="#2B2B2B"/></svg>