<svg width="24" height="24" fill="none" xmlns="http://www.w3.org/2000/svg"><path d="M22.25 11.018h1.696l.054-.055c0-.52-.043-1.053-.12-1.574l-1.63 1.629zM18.361 1.4l-5.378 5.373v1.694l6.41-6.405a9.739 9.739 0 00-1.032-.662zm-2.39-.988l-2.988 2.986V5.09L17.221.858a8.556 8.556 0 00-1.25-.446zM14.58.12A10.878 10.878 0 0013.005 0l-.022.022v1.693L14.58.12zm2.608 10.898l5.4-5.395a9.726 9.726 0 00-.663-1.031l-6.432 6.426h1.695zm3.987-7.371c-.13-.14-.26-.282-.402-.423a16.745 16.745 0 00-.445-.423l-7.345 7.348v.858h.826l7.366-7.36zm-.608 7.371L23.587 8a13.05 13.05 0 00-.434-1.248l-4.27 4.266h1.684z" fill="#fff"/><path d="M11.06 1.9C4.954 1.9 0 6.85 0 12.95 0 19.05 4.954 24 11.06 24c6.106 0 11.06-4.95 11.06-11.05H11.06V1.9z" fill="#fff"/></svg>