<svg width="20" height="24" fill="none" xmlns="http://www.w3.org/2000/svg"><path d="M12.497 16.475H7.481C3.359 16.475 0 19.854 0 24h20c-.022-4.124-3.38-7.525-7.503-7.525zm-1.614-3.444c.393 0 .764.132 1.047.373h1.81a5.185 5.185 0 001.44-3.598c0-2.896-2.334-5.221-5.19-5.221-2.858 0-5.192 2.325-5.192 5.221A5.236 5.236 0 007.46 14.37c.175-.768.85-1.338 1.636-1.338h1.788z" fill="#fff"/><path d="M2.312 10.245c.065.548.327 1.053.698 1.426.283.285.654.505 1.069.636-.022-.088-.022-.175-.022-.241V7.81c0-.088 0-.176.022-.263a2.33 2.33 0 00-1.07.636l-.086.088v-.176c0-.417.043-.834.109-1.228.065-.417.174-.812.327-1.185a5.23 5.23 0 01.523-1.119 6.51 6.51 0 01.698-1.01.167.167 0 00.044-.087.642.642 0 00.523-.175 6.751 6.751 0 014.798-1.997c1.723 0 3.49.658 4.799 1.997a.617.617 0 00.523.175c.022.022.022.066.044.088.261.307.502.658.698 1.01.196.35.37.723.523 1.118.131.395.24.79.327 1.206.066.395.11.812.11 1.229v.175c-.022-.043-.066-.065-.088-.087a2.629 2.629 0 00-1.069-.636c.022.087.022.175.022.263v4.234c0 .088 0 .175-.021.241.108-.022.218-.066.327-.11v1.383c0 .153-.022.307-.044.416a.618.618 0 01-.11.242.475.475 0 01-.174.11 1.097 1.097 0 01-.283.043h-4.035a.724.724 0 00-.633-.373H9.073a.705.705 0 00-.698.702.724.724 0 00.72.702h1.788a.751.751 0 00.633-.373h4.209c.153 0 .284-.043.415-.087.174-.066.305-.154.436-.286a1.45 1.45 0 00.261-.482c.044-.176.088-.395.088-.636v-1.821l.065-.066c.371-.373.633-.878.698-1.426.022-.022.044-.022.044-.044a.406.406 0 00.109-.263V8.117c0-.46-.044-.921-.11-1.36-.13-.46-.24-.9-.392-1.338a6.544 6.544 0 00-.589-1.25 6.46 6.46 0 00-.785-1.12c-.022-.044-.065-.065-.109-.087a.67.67 0 00-.174-.593A7.983 7.983 0 009.989 0a8.07 8.07 0 00-5.714 2.37.67.67 0 00-.175.592.383.383 0 00-.109.087 6.464 6.464 0 00-.785 1.12 10.96 10.96 0 00-.589 1.25 7.103 7.103 0 00-.349 1.338c-.087.439-.109.9-.109 1.36v1.82c0 .11.044.198.11.264.021.022.043.022.043.044z" fill="#fff"/></svg>