<svg width="21" height="35" fill="none" xmlns="http://www.w3.org/2000/svg"><path d="M5.826 34.218c0 .43.352.782.782.782h11.56c.43 0 .783-.352.783-.782v-1.79H5.826v1.79zm-.263-21.596l.004-5.719c0-.66.25-1.278.708-1.74.509-.508 1.236-.797 2.003-.797.598 0 1.173.184 1.619.512.54.399.876 1 .946 1.689 0 .016.31 2.998.587 5.668a6.57 6.57 0 003.254-5.668A6.568 6.568 0 008.114 0a6.568 6.568 0 00-6.571 6.567 6.562 6.562 0 004.02 6.055z" fill="#fff"/><path d="M21 20.084c0-.762-.489-1.439-1.216-1.673-2.17-.708-6.551-2.119-7.22-2.252a3.277 3.277 0 00-.606-.058c-.528 0-.99.144-1.267.39h-.004v-.003c-.004-.032-1.013-9.784-1.013-9.8-.082-.782-.731-1.153-1.4-1.153-.759 0-1.541.477-1.537 1.364l-.008 15.804a.375.375 0 01-.325.371h-.008c-.015.004-.035.004-.05.004h-.012c-.532-.016-1.733-.031-2.902-1.724a77.224 77.224 0 01-.426-.613c-.407-.583-.95-.833-1.463-.833-.9 0-1.71.778-1.514 1.939.282 1.692 2.136 5.636 5.789 9.334h13.125l1.326-2.24c.473-.793.723-1.7.723-2.627l.008-6.23z" fill="#fff"/></svg>