<svg width="27" height="23" fill="none" xmlns="http://www.w3.org/2000/svg"><path d="M27 2.723a11.126 11.126 0 01-3.19.916A5.73 5.73 0 0026.245.432a10.757 10.757 0 01-3.51 1.404C21.72.702 20.272 0 18.692 0c-3.064 0-5.532 2.608-5.532 5.805 0 .46.038.902.129 1.323-4.602-.235-8.674-2.547-11.41-6.07a6.06 6.06 0 00-.757 2.933c0 2.01.987 3.792 2.459 4.823A5.274 5.274 0 011.08 8.1v.063c0 2.82 1.918 5.163 4.434 5.703-.45.129-.941.19-1.45.19-.355 0-.713-.02-1.049-.098.717 2.298 2.753 3.987 5.172 4.042a10.796 10.796 0 01-6.863 2.475c-.454 0-.889-.02-1.324-.08A15.065 15.065 0 008.49 23c10.186 0 15.755-8.846 15.755-16.514 0-.257-.009-.504-.02-.75 1.098-.818 2.021-1.838 2.774-3.013z" fill="#2B2B2B"/></svg>