<svg width="35" height="35" fill="none" xmlns="http://www.w3.org/2000/svg"><rect x="1" y="1" width="33" height="33" rx="2" stroke="#E03D22" stroke-width="2"/><path d="M20.806 21.724c.255.084.775.157 1.437.307 0 0 2.771.381 3.756 1.128 1.357 1.03 1.424 3.788 1.424 3.788H7.579s-.112-2.81 1.582-3.788c1.97-1.137 3.844-1.245 4.417-1.435l.01-.003c.532-.177 1.1-.365 1.1-1.117 0-.756.009-.854-.173-.955-.346-.195-.552-.495-.597-.73-.084-.435-.128-1.655-.238-1.812-.11-.157-.307-.023-.372-.38-.066-.358-.066-.672-.132-.806-.065-.134-.296-1-.153-1.298.126-.266.356-.127.372-.291.028-.269-.462-2.517-.131-3.47.344-.99.718-1.127 1.068-1.352.35-.224.575-.796 1.407-1.222.833-.425 2.059-.179 2.476 0 .416.18 2.08.649 2.322 1.522.003.012.397.512.584 1.053.33.952-.16 3.2-.13 3.469.015.164.244.025.371.29.142.299-.088 1.165-.154 1.3-.065.133-.065.447-.13.805-.066.357-.263.223-.373.38-.11.157-.154 1.377-.238 1.813-.045.234-.25.534-.598.729-.181.1-.171.2-.171.955 0 .751.567.94 1.098 1.117l.01.003z" fill="#A9A9A9"/><path d="M20.806 21.724l-.158.475h.003l.155-.475zm-.01-.003l.158-.475-.158.475zm-.927-2.072l.243.437.002-.001-.245-.436zm.598-.73l-.491-.094.49.095zm.238-1.812l.41.288v-.003l-.41-.285zm.373-.38l.491.09-.491-.09zm.13-.806l.45.22v-.001l-.45-.219zm.154-1.298l.451-.215-.451.215zm-.372-.291l.498-.048v-.006l-.498.053zm.131-3.47l-.473.164.473-.163zm-.584-1.052l.484-.126-.002-.007-.482.133zm-2.322-1.522l.197-.46-.197.46zm-2.476 0l-.227-.445.227.445zM14.332 9.51l-.269-.421.27.421zm-1.068 1.353l.472.164-.472-.164zm.131 3.469l-.497-.052v.002l.497.05zm-.372.29l.451.217.001-.002-.452-.214zm.153 1.3l-.45.218h.001l.45-.219zm.132.805l.492-.09v-.001l-.492.09zm.372.38l-.41.287h.001l.41-.287zm.238 1.813l.491-.095-.49.095zm.597.729l-.244.436h.001l.243-.436zm-.927 2.072l-.158-.474.158.474zm-.01.003l.157.475-.157-.475zM9.161 23.16l.25.434-.25-.434zm-1.582 3.788l-.5.02.02.48h.48v-.5zm19.844 0v.5h.512l-.012-.512-.5.012zm-1.424-3.788l.303-.398-.303.398zm-4.634-.44a4.155 4.155 0 001.032-.213l-.308-.951a3.2 3.2 0 01-.784.166l.06.998zm.988-1.176c-.34-.077-.644-.134-.886-.181a5.138 5.138 0 01-.505-.113l-.311.95c.163.054.392.1.626.144.247.049.534.103.856.175l.22-.975zm-1.389-.293l-.01-.004-.316.95.01.003.316-.95zm-.01-.004c-.286-.095-.47-.162-.598-.262-.088-.068-.158-.158-.158-.38h-1c0 .53.212.91.541 1.167.29.227.653.342.9.424l.315-.949zm-.756-.642v-.446c.003-.114.007-.172.011-.201.005-.027.003.012-.033.063-.038.054-.079.074-.064.066l-.486-.874a.785.785 0 00-.27.236.832.832 0 00-.135.357c-.028.18-.023.451-.023.799h1zm-.085-.519c.452-.253.767-.666.845-1.07l-.982-.19a.443.443 0 01-.09.167.874.874 0 01-.261.22l.488.873zm.844-1.07c.049-.25.084-.705.117-1.06.018-.19.035-.358.054-.487.01-.066.018-.11.025-.138.012-.05.008-.002-.039.065l-.818-.575a.814.814 0 00-.115.275c-.017.07-.03.15-.042.228-.023.157-.043.35-.06.54-.038.403-.067.776-.104.962l.982.19zm.159-1.623a.29.29 0 01-.116.098l.014-.005c.015-.005.052-.017.092-.034a.73.73 0 00.304-.24.943.943 0 00.16-.393l-.984-.182c-.008.043-.012.023.018-.017a.271.271 0 01.105-.086l-.016.005a1.327 1.327 0 00-.092.035.712.712 0 00-.307.25l.822.57zm.454-.575c.036-.2.055-.39.07-.52.008-.068.014-.116.02-.15.008-.04.01-.033-.003-.006l-.898-.44a.983.983 0 00-.08.259 3.243 3.243 0 00-.033.222c-.017.151-.031.296-.06.455l.984.18zm.088-.677c.04-.08.076-.202.104-.305.032-.118.066-.263.093-.414.027-.15.049-.318.052-.478a1.203 1.203 0 00-.094-.535l-.902.43c-.017-.035-.001-.023-.004.084-.002.09-.015.203-.036.324a3.791 3.791 0 01-.073.326c-.03.106-.046.144-.04.13l.9.438zm.155-1.732a.823.823 0 00-.28-.333.858.858 0 00-.275-.12l-.033-.008a.455.455 0 01-.01-.003l.018.006c.01.004.027.01.047.022a.415.415 0 01.208.313l-.995.094a.586.586 0 00.302.468.698.698 0 00.152.06l.042.011.022.006c.021.005-.006 0-.04-.022a.189.189 0 01-.06-.064l.902-.43zm-.326-.13c.004.032 0 .025.011-.077l.042-.321c.037-.261.086-.606.126-.972.04-.366.071-.765.07-1.14 0-.366-.032-.752-.143-1.07l-.944.329c.055.159.086.411.087.743.001.323-.026.681-.064 1.03-.038.348-.085.675-.122.941-.018.131-.035.251-.046.348a1.465 1.465 0 00-.01.296l.993-.107zm.106-3.579a4.155 4.155 0 00-.41-.827 5.75 5.75 0 00-.171-.257l-.05-.07-.007-.01-.002-.002.001.002a.297.297 0 01.02.033.483.483 0 01.046.116l-.967.252a.493.493 0 00.063.145l.015.022.018.025.046.064c.037.052.087.125.142.213.113.18.236.403.311.621l.945-.327zm-.574-1.022c-.097-.35-.324-.621-.561-.827a3.86 3.86 0 00-.793-.509 8.383 8.383 0 00-.768-.33c-.245-.092-.393-.143-.485-.182l-.395.918c.116.05.332.126.525.2.212.08.449.176.676.29.23.114.433.238.586.37.155.134.227.248.25.336l.965-.266zm-2.607-1.849c-.27-.115-.738-.232-1.246-.265-.505-.034-1.123.009-1.654.28l.455.89c.302-.154.713-.2 1.133-.172.417.027.77.124.917.187l.395-.92zm-2.9.015a3.49 3.49 0 00-1.027.796c-.056.06-.106.12-.151.172a7.563 7.563 0 01-.121.138.825.825 0 01-.15.14l.538.843c.145-.093.26-.21.352-.311l.138-.157c.045-.052.088-.102.134-.153.179-.197.397-.401.742-.578l-.455-.89zm-1.45 1.246c-.13.084-.392.221-.626.462-.245.254-.457.606-.645 1.148l.945.328c.156-.45.303-.661.419-.78.127-.131.227-.175.447-.316l-.54-.842zm-1.27 1.61c-.111.317-.143.703-.144 1.068 0 .376.03.775.07 1.14.04.367.09.712.127.973.018.132.033.24.042.321.012.102.008.11.01.079l.995.103a1.54 1.54 0 00-.011-.295 14.13 14.13 0 00-.046-.347c-.037-.266-.084-.593-.122-.941a9.538 9.538 0 01-.065-1.03c.001-.332.033-.584.088-.743l-.945-.328zm.106 3.583a.414.414 0 01.272-.338l-.01.003-.033.008a.855.855 0 00-.276.12.822.822 0 00-.28.334l.904.428a.188.188 0 01-.061.065c-.034.023-.061.027-.04.022l.022-.006.041-.01a.702.702 0 00.153-.061.586.586 0 00.303-.466l-.995-.099zm-.325.125a1.2 1.2 0 00-.095.536c.003.16.025.328.051.478.027.151.061.296.093.414.028.103.065.224.104.305l.9-.438c.006.014-.01-.024-.039-.13a3.75 3.75 0 01-.073-.326 2.193 2.193 0 01-.036-.324c-.002-.107.013-.118-.004-.083l-.901-.432zm.154 1.734c-.013-.027-.01-.035-.003.005.006.035.013.083.021.152.015.129.034.32.071.52l.983-.182c-.029-.158-.043-.303-.06-.455a3.228 3.228 0 00-.033-.221 1.028 1.028 0 00-.08-.259l-.899.44zm.089.676c.024.135.07.272.159.393.095.13.21.2.304.24.04.018.077.03.092.035.021.008.02.008.015.005a.288.288 0 01-.115-.096l.82-.573a.712.712 0 00-.307-.248 1.299 1.299 0 00-.093-.035l-.015-.005c.021.01.069.036.105.086.03.041.027.062.019.018l-.984.18zm.455.578c-.046-.067-.05-.116-.039-.066.007.028.016.073.025.138.019.13.036.299.054.488.033.355.068.81.116 1.06l.982-.19c-.036-.186-.065-.559-.102-.962a11.21 11.21 0 00-.06-.54 2.612 2.612 0 00-.042-.228.813.813 0 00-.115-.275l-.819.575zm.156 1.62c.078.404.394.817.844 1.07l.49-.872a.88.88 0 01-.263-.222.443.443 0 01-.089-.165l-.982.188zm.845 1.07c.016.01-.025-.01-.063-.064-.036-.052-.037-.09-.033-.064.004.03.008.087.01.202.002.111.002.252.002.445h1c0-.348.004-.619-.024-.8a.83.83 0 00-.136-.356.786.786 0 00-.27-.236l-.486.874zm-.084.519c0 .222-.071.312-.159.38-.127.1-.313.167-.599.262l.316.95c.246-.082.61-.198.9-.424.329-.258.542-.638.542-1.168h-1zm-.758.643l-.01.003.316.949.01-.004-.316-.948zm-.009.003c-.104.034-.287.07-.591.127a19.78 19.78 0 00-1.056.224c-.815.2-1.824.526-2.863 1.125l.5.867a9.857 9.857 0 012.602-1.02c.379-.094.717-.159 1.004-.213.269-.052.535-.1.718-.161l-.314-.95zm-4.51 1.476c-1.032.595-1.471 1.717-1.664 2.585a7.293 7.293 0 00-.168 1.643v.012l.5-.019.5-.02c0 .001 0 0 0 0v-.003l-.001-.018v-.08a6.292 6.292 0 01.145-1.298c.174-.782.526-1.554 1.188-1.936l-.5-.866zm-1.331 4.72h19.844v-1H7.579v1zm18.723-4.686c-.309-.234-.724-.418-1.138-.565a12.2 12.2 0 00-1.3-.368 19.944 19.944 0 00-1.552-.293l-.07.496-.067.495h.006a13.372 13.372 0 01.425.068c.27.047.637.116 1.033.208.398.092.817.205 1.191.337.383.136.683.279.867.419l.605-.797zm1.12 4.186l.5-.012v-.004a.416.416 0 010-.035l-.006-.098a9.288 9.288 0 00-.21-1.47c-.19-.838-.577-1.939-1.404-2.567l-.605.797c.529.4.853 1.193 1.035 1.992a8.278 8.278 0 01.19 1.405v.004l.5-.012z" fill="#A9A9A9"/></svg>