<svg width="35" height="35" fill="none" xmlns="http://www.w3.org/2000/svg"><path d="M27.602 10.117C27.602 4.538 23.066 0 17.49 0 11.915 0 7.38 4.538 7.38 10.117c0 3.455 1.74 6.511 4.39 8.337a17.423 17.423 0 00-6.646 4.171A17.39 17.39 0 000 34.999h2.733c0-8.142 6.62-14.765 14.757-14.765 5.576 0 10.112-4.539 10.112-10.117zM17.49 17.5c-4.068 0-7.378-3.312-7.378-7.383s3.31-7.383 7.378-7.383c4.069 0 7.379 3.312 7.379 7.383 0 4.07-3.31 7.383-7.379 7.383zM35 25.156l-6.432 6.435-1.932-1.934 3.201-3.203h-2.37a5.953 5.953 0 00-5.943 5.942L21.52 35l-2.733-.002.003-2.604c.004-4.783 3.896-8.674 8.676-8.674H29.7l-3.064-3.066 1.932-1.934L35 25.156z" fill="#fff"/></svg>