<svg width="27" height="16" fill="none" xmlns="http://www.w3.org/2000/svg"><path fill-rule="evenodd" clip-rule="evenodd" d="M23.237 9.792c.896.882 1.84 1.711 2.644 2.681.355.431.691.876.948 1.377.364.71.034 1.494-.599 1.536l-3.933-.002c-1.014.085-1.824-.327-2.504-1.026-.545-.559-1.05-1.154-1.573-1.732a3.733 3.733 0 00-.708-.634c-.537-.351-1.003-.244-1.31.32-.312.575-.383 1.21-.414 1.85-.042.934-.322 1.18-1.252 1.222-1.989.095-3.875-.209-5.629-1.22-1.545-.89-2.744-2.149-3.787-3.573C3.09 7.817 1.534 4.769.136 1.636-.179.93.051.55.824.538 2.107.512 3.39.514 4.675.536c.522.007.867.309 1.068.806.695 1.72 1.544 3.357 2.61 4.874.284.404.574.808.986 1.093.456.315.804.21 1.018-.302.136-.325.196-.674.227-1.022.101-1.197.115-2.391-.063-3.584-.11-.744-.526-1.226-1.263-1.367-.376-.071-.32-.212-.138-.429C9.437.232 9.734 0 10.327 0h4.445c.7.14.855.456.951 1.166l.004 4.977c-.008.275.136 1.09.627 1.272.393.13.652-.188.888-.439 1.064-1.138 1.824-2.484 2.503-3.877.3-.613.56-1.25.81-1.885.187-.472.478-.704 1.006-.693l4.278.003c.127 0 .255.002.378.023.721.124.919.437.696 1.146-.35 1.114-1.034 2.042-1.701 2.974-.713.995-1.477 1.956-2.184 2.957-.65.914-.599 1.374.209 2.168z" fill="#2B2B2B"/></svg>